<?xml version="1.0" encoding="UTF-8" standalone="no"?>
<!DOCTYPE svg PUBLIC "-//W3C//DTD SVG 1.1//EN" "http://www.w3.org/Graphics/SVG/1.1/DTD/svg11.dtd">
<svg width="100%" height="100%" viewBox="0 0 1394 479" version="1.1" xmlns="http://www.w3.org/2000/svg" xmlns:xlink="http://www.w3.org/1999/xlink" xml:space="preserve" xmlns:serif="http://www.serif.com/" style="fill-rule:evenodd;clip-rule:evenodd;stroke-linejoin:round;stroke-miterlimit:2;">
    <g transform="matrix(1,0,0,1,-23,-195)">
        <g transform="matrix(1,0,0,0.983669,83.6427,126.082)">
            <g transform="matrix(1.20147,0,0,1.20147,-135.854,-122.834)">
                <g transform="matrix(291.774,0,0,291.774,244,412)">
                    <path d="M0.596,-0.597C0.644,-0.532 0.668,-0.451 0.668,-0.352C0.668,-0.253 0.641,-0.169 0.588,-0.1C0.531,-0.026 0.457,0.011 0.366,0.011C0.274,0.011 0.199,-0.027 0.14,-0.103C0.085,-0.172 0.058,-0.255 0.058,-0.352C0.058,-0.448 0.086,-0.531 0.141,-0.602C0.196,-0.673 0.272,-0.708 0.369,-0.708C0.466,-0.708 0.541,-0.671 0.596,-0.597ZM0.521,-0.138C0.544,-0.195 0.556,-0.265 0.556,-0.35C0.556,-0.434 0.545,-0.504 0.523,-0.559C0.492,-0.638 0.439,-0.678 0.365,-0.678C0.235,-0.678 0.17,-0.569 0.17,-0.35C0.17,-0.131 0.236,-0.022 0.367,-0.022C0.438,-0.022 0.489,-0.061 0.521,-0.138ZM0.082,-0.675C0.082,-0.661 0.078,-0.65 0.069,-0.641L-0.064,-0.505L-0.085,-0.51L0.012,-0.691C0.019,-0.704 0.032,-0.711 0.049,-0.711C0.071,-0.711 0.082,-0.699 0.082,-0.675Z" style="fill-rule:nonzero;"/>
                </g>
                <g transform="matrix(291.774,0,0,291.774,453.494,412)">
                    <path d="M0.302,0.228C0.296,0.221 0.293,0.207 0.293,0.185C0.293,0.163 0.299,0.109 0.311,0.022C0.224,0.015 0.157,-0.016 0.11,-0.071C0.065,-0.122 0.043,-0.191 0.043,-0.279C0.043,-0.314 0.049,-0.349 0.062,-0.383C0.077,-0.432 0.099,-0.457 0.128,-0.457C0.14,-0.457 0.153,-0.454 0.167,-0.449C0.181,-0.444 0.188,-0.436 0.188,-0.426C0.188,-0.415 0.178,-0.39 0.159,-0.349C0.14,-0.308 0.13,-0.269 0.13,-0.231C0.13,-0.171 0.146,-0.12 0.177,-0.078C0.208,-0.035 0.252,-0.013 0.31,-0.01C0.313,-0.062 0.315,-0.176 0.315,-0.352C0.315,-0.387 0.312,-0.438 0.306,-0.505C0.3,-0.572 0.297,-0.621 0.297,-0.653C0.297,-0.668 0.302,-0.68 0.312,-0.689C0.321,-0.698 0.334,-0.702 0.349,-0.702C0.378,-0.702 0.393,-0.689 0.393,-0.664C0.393,-0.603 0.387,-0.51 0.376,-0.386C0.364,-0.261 0.359,-0.164 0.361,-0.095L0.362,-0.01C0.426,-0.023 0.474,-0.057 0.507,-0.113C0.54,-0.169 0.556,-0.232 0.556,-0.301C0.556,-0.32 0.551,-0.347 0.54,-0.384C0.529,-0.421 0.523,-0.446 0.523,-0.46C0.523,-0.474 0.529,-0.481 0.542,-0.481C0.569,-0.481 0.592,-0.451 0.613,-0.391C0.632,-0.339 0.642,-0.298 0.642,-0.268C0.642,-0.185 0.617,-0.118 0.567,-0.068C0.516,-0.017 0.449,0.012 0.364,0.02C0.375,0.103 0.38,0.157 0.38,0.181C0.38,0.204 0.378,0.22 0.373,0.229C0.368,0.238 0.356,0.242 0.338,0.242C0.32,0.242 0.308,0.237 0.302,0.228Z" style="fill:rgb(255,110,108);fill-rule:nonzero;"/>
                </g>
                <g transform="matrix(291.774,0,0,291.774,655.984,412)">
                    <path d="M0.447,-0.136C0.454,-0.091 0.429,-0.054 0.373,-0.025C0.33,-0.002 0.283,0.01 0.234,0.01C0.185,0.01 0.143,-0.001 0.108,-0.023C0.068,-0.048 0.048,-0.085 0.048,-0.134C0.048,-0.183 0.073,-0.221 0.122,-0.246C0.082,-0.266 0.062,-0.299 0.062,-0.344C0.062,-0.389 0.081,-0.422 0.12,-0.445C0.151,-0.463 0.186,-0.472 0.225,-0.472C0.264,-0.472 0.304,-0.468 0.347,-0.461C0.402,-0.449 0.429,-0.434 0.429,-0.416C0.429,-0.407 0.425,-0.394 0.416,-0.378C0.407,-0.361 0.398,-0.353 0.391,-0.353C0.383,-0.353 0.361,-0.359 0.326,-0.37C0.291,-0.381 0.263,-0.386 0.242,-0.386C0.15,-0.386 0.104,-0.364 0.104,-0.32C0.104,-0.306 0.11,-0.293 0.123,-0.281C0.135,-0.269 0.147,-0.263 0.159,-0.263C0.171,-0.263 0.187,-0.266 0.207,-0.273C0.227,-0.279 0.243,-0.282 0.254,-0.282C0.289,-0.282 0.307,-0.27 0.307,-0.247C0.307,-0.218 0.285,-0.203 0.241,-0.203C0.228,-0.203 0.215,-0.205 0.203,-0.209L0.163,-0.223C0.146,-0.223 0.129,-0.217 0.114,-0.204C0.098,-0.191 0.09,-0.176 0.09,-0.161C0.09,-0.132 0.109,-0.111 0.148,-0.096C0.177,-0.084 0.209,-0.078 0.242,-0.078C0.321,-0.078 0.39,-0.097 0.447,-0.136Z" style="fill-rule:nonzero;"/>
                </g>
                <g transform="matrix(291.774,0,0,291.774,795.744,412)">
                    <path d="M0.076,-0.199L0.072,-0.394C0.072,-0.426 0.073,-0.445 0.075,-0.451C0.081,-0.464 0.1,-0.471 0.133,-0.471C0.165,-0.471 0.181,-0.464 0.181,-0.449C0.181,-0.411 0.169,-0.352 0.146,-0.273C0.123,-0.194 0.111,-0.135 0.111,-0.097C0.111,-0.072 0.123,-0.059 0.146,-0.059C0.178,-0.059 0.208,-0.088 0.235,-0.145C0.246,-0.144 0.254,-0.136 0.261,-0.123C0.267,-0.11 0.27,-0.094 0.27,-0.075C0.27,-0.055 0.261,-0.037 0.244,-0.019C0.227,-0 0.206,0.009 0.181,0.009C0.13,0.009 0.098,-0.015 0.084,-0.064C0.079,-0.084 0.076,-0.129 0.076,-0.199Z" style="fill-rule:nonzero;"/>
                </g>
                <g transform="matrix(291.774,0,0,291.774,885.61,412)">
                    <path d="M0.245,0.144L0.311,0.158C0.334,0.158 0.353,0.152 0.368,0.14C0.383,0.128 0.39,0.112 0.39,0.091C0.39,0.046 0.36,0.021 0.3,0.015C0.201,0.004 0.146,-0.005 0.133,-0.01C0.074,-0.036 0.044,-0.095 0.044,-0.189C0.044,-0.282 0.083,-0.352 0.161,-0.401C0.226,-0.443 0.308,-0.464 0.408,-0.464C0.425,-0.464 0.434,-0.451 0.434,-0.424C0.434,-0.397 0.43,-0.38 0.422,-0.375C0.414,-0.37 0.398,-0.367 0.373,-0.367C0.296,-0.367 0.232,-0.355 0.181,-0.331C0.114,-0.298 0.081,-0.247 0.081,-0.178C0.081,-0.127 0.111,-0.096 0.171,-0.083C0.202,-0.079 0.259,-0.071 0.34,-0.06C0.4,-0.043 0.43,-0.004 0.43,0.055C0.43,0.101 0.414,0.143 0.382,0.18C0.349,0.217 0.31,0.236 0.264,0.236C0.245,0.236 0.23,0.232 0.218,0.223C0.205,0.214 0.199,0.202 0.199,0.188C0.199,0.174 0.204,0.163 0.213,0.156C0.222,0.148 0.232,0.144 0.245,0.144Z" style="fill-rule:nonzero;"/>
                </g>
                <g transform="matrix(291.774,0,0,291.774,1016.91,412)">
                    <path d="M0.144,-0.114C0.162,-0.114 0.177,-0.108 0.19,-0.096C0.202,-0.083 0.208,-0.068 0.208,-0.051C0.208,-0.033 0.202,-0.018 0.19,-0.006C0.178,0.007 0.163,0.013 0.145,0.013C0.126,0.013 0.111,0.007 0.099,-0.006C0.086,-0.018 0.08,-0.033 0.08,-0.051C0.08,-0.068 0.086,-0.083 0.099,-0.096C0.112,-0.108 0.127,-0.114 0.144,-0.114Z" style="fill:rgb(255,110,108);fill-rule:nonzero;"/>
                </g>
            </g>
            <g transform="matrix(1.27966,0,0,0.340449,-303.575,320.327)">
                <rect x="200" y="587.06" width="1062" height="59.131" style="fill:rgb(255,110,108);"/>
            </g>
        </g>
    </g>
</svg>
