<?xml version="1.0" encoding="UTF-8" standalone="no"?>
<!DOCTYPE svg PUBLIC "-//W3C//DTD SVG 1.1//EN" "http://www.w3.org/Graphics/SVG/1.1/DTD/svg11.dtd">
<svg width="100%" height="100%" viewBox="0 0 286 194" version="1.1" xmlns="http://www.w3.org/2000/svg" xmlns:xlink="http://www.w3.org/1999/xlink" xml:space="preserve" xmlns:serif="http://www.serif.com/" style="fill-rule:evenodd;clip-rule:evenodd;stroke-linejoin:round;stroke-miterlimit:2;">
    <g transform="matrix(1,0,0,1,-748,-48)">
        <g id="_321-arrow-left2" serif:id="321-arrow-left2" transform="matrix(12.8569,0,0,12.8569,740.146,49.2894)">
            <path d="M6.293,13.707L1.293,8.707C0.902,8.317 0.902,7.683 1.293,7.293L6.293,2.293C6.684,1.902 7.317,1.902 7.707,2.293C8.097,2.684 8.098,3.317 7.707,3.707L4.414,7L20.445,7C20.997,7 21.445,7.448 21.445,8C21.445,8.552 20.997,9 20.445,9L4.414,9L7.707,12.293C7.902,12.488 8,12.744 8,13C8,13.256 7.902,13.512 7.707,13.707C7.316,14.098 6.683,14.098 6.293,13.707Z" style="fill:rgb(72,183,207);fill-rule:nonzero;"/>
        </g>
    </g>
</svg>
