<?xml version="1.0" encoding="UTF-8" standalone="no"?>
<!DOCTYPE svg PUBLIC "-//W3C//DTD SVG 1.1//EN" "http://www.w3.org/Graphics/SVG/1.1/DTD/svg11.dtd">
<svg width="100%" height="100%" viewBox="0 0 347 248" version="1.1" xmlns="http://www.w3.org/2000/svg" xmlns:xlink="http://www.w3.org/1999/xlink" xml:space="preserve" xmlns:serif="http://www.serif.com/" style="fill-rule:evenodd;clip-rule:evenodd;stroke-linejoin:round;stroke-miterlimit:2;">
    <g transform="matrix(1,0,0,1,-666,-330)">
        <g id="_319-arrow-down2" serif:id="319-arrow-down2" transform="matrix(1.05471e-15,17.0826,-20.1425,1.249e-15,999.594,317.66)">
            <path d="M13.707,9.707L8.707,14.707C8.317,15.098 7.683,15.098 7.293,14.707L2.293,9.707C1.902,9.316 1.902,8.683 2.293,8.293C2.684,7.903 3.317,7.902 3.707,8.293L7,11.586L7,2C7,1.448 7.448,1 8,1C8.552,1 9,1.448 9,2L9,11.586L12.293,8.293C12.488,8.098 12.744,8 13,8C13.256,8 13.512,8.098 13.707,8.293C14.098,8.684 14.098,9.317 13.707,9.707Z" style="fill-rule:nonzero;"/>
        </g>
    </g>
</svg>
